<svg width="129" height="40" viewBox="0 0 129 40" fill="none" xmlns="http://www.w3.org/2000/svg">
<path d="M42.9399 11.8905C46.2899 12.7605 48.1799 13.9705 48.1799 16.8505V16.9005C48.1799 20.1805 45.6799 22.0205 42.1099 22.0205C39.9399 22.0205 37.7399 21.3605 35.8999 20.0405C35.4999 19.7605 35.2099 19.2405 35.2099 18.6705C35.2099 18.6405 35.2099 18.6205 35.2099 18.6005C35.2099 18.5105 35.2199 18.4305 35.2399 18.3405V18.3205C35.2799 18.1205 35.3499 17.9205 35.4699 17.7405C35.9699 16.9605 36.3699 16.3405 36.3699 16.3405L37.6799 17.1805C37.7799 17.2305 37.8599 17.2805 37.9399 17.3305C39.1899 18.2505 40.5599 18.8205 42.1699 18.8205C43.6599 18.8205 44.5499 18.2305 44.5499 17.2605V17.2105C44.5499 16.2905 43.9799 15.8205 41.2199 15.1105C37.8899 14.2605 35.7399 13.3405 35.7399 10.0605V10.0105C35.7699 7.01047 38.1699 5.02047 41.5499 5.02047C43.5599 5.02047 45.2999 5.54047 46.7899 6.48047C47.1899 6.72047 47.5899 7.21047 47.5899 7.92047C47.5899 8.86047 46.8399 9.60047 45.8899 9.60047C45.5399 9.60047 45.2499 9.51047 44.9699 9.34047C43.7699 8.63047 42.6299 8.23047 41.4999 8.23047C40.1099 8.23047 39.3799 8.87047 39.3799 9.67047V9.72047C39.3799 10.8105 40.0899 11.1605 42.9399 11.8905ZM72.4799 21.1105C72.4799 21.1105 71.9199 21.4205 70.9799 21.8005C70.5699 21.9705 70.1299 21.9705 69.7399 21.8505C69.6999 21.8405 69.6499 21.8205 69.6099 21.8105C69.5999 21.8105 69.5799 21.8005 69.5699 21.7905C69.0899 21.6005 68.7299 21.2005 68.4999 20.6705L67.3899 18.0705H60.1199L58.9599 20.7805C58.6499 21.4905 58.0399 21.9105 57.2799 21.9105C57.0299 21.9105 56.7899 21.8505 56.5799 21.7505C55.6399 21.3605 55.0799 21.0605 55.0799 21.0605L61.1899 7.28047C61.2499 7.12047 61.3199 6.98047 61.3899 6.85047L61.5799 6.42047C61.9799 5.52047 62.7099 4.98047 63.6999 4.98047H63.9099C64.8999 4.98047 65.6099 5.52047 66.0099 6.42047L71.7699 19.4305C71.8299 19.5705 71.8799 19.6905 71.9099 19.8205L72.4699 21.0905L72.4799 21.1105ZM66.0399 14.8705L63.7499 9.42047L61.4599 14.8705H66.0399ZM84.8199 8.57047C85.7399 8.57047 86.4699 7.84047 86.4699 6.92047C86.4699 6.00047 85.7399 5.27047 84.8199 5.27047H75.5699C74.5599 5.27047 73.7499 6.07047 73.7499 7.09047V20.1105C73.7499 20.1705 73.7599 20.2205 73.7699 20.2805V21.9505C73.7699 21.9505 74.5699 21.9505 75.5899 21.9505C76.6099 21.9505 77.4099 21.1705 77.4099 20.1805V15.3905H83.7699C84.6899 15.3905 85.4199 14.6605 85.4199 13.7405C85.4199 12.8205 84.6899 12.0905 83.7699 12.0905H77.4099V8.56047H84.8299L84.8199 8.57047ZM109.09 10.7705C109.09 13.3705 107.79 14.9705 105.79 15.8005L108.32 18.8705C108.67 19.3205 108.91 19.6905 108.91 20.2605C108.91 21.2705 108.06 21.9405 107.19 21.9405C106.36 21.9405 105.82 21.5405 105.4 21.0005L101.86 16.5205H98.9599V20.1305C98.9599 20.7805 98.6199 21.3505 98.1099 21.6705C98.0799 21.6905 98.0399 21.7105 97.9999 21.7305C97.9499 21.7605 97.8899 21.7905 97.8399 21.8205C97.6099 21.9205 97.3599 21.9805 97.0799 21.9805C96.0699 21.9805 95.2599 21.9805 95.2599 21.9805V7.35047C95.2599 7.18047 95.2899 7.02047 95.3399 6.87047C95.4499 5.96047 96.1999 5.27047 97.1399 5.27047H102.88C104.98 5.27047 106.61 5.86047 107.69 6.95047C108.61 7.87047 109.11 9.17047 109.11 10.7305V10.7805M105.43 10.9205C105.43 9.36047 104.34 8.56047 102.57 8.56047H98.9599V13.3005H102.64C104.41 13.3005 105.43 12.3605 105.43 10.9605V10.9105V10.9205ZM117.51 5.26047C121.45 5.26047 123.84 7.60047 123.84 10.9705V11.0205C123.84 14.8405 120.87 16.8305 117.16 16.8305H114.4V20.1105C114.4 20.5005 114.28 20.8605 114.08 21.1505C113.76 21.6305 113.2 21.9505 112.56 21.9505C111.55 21.9505 110.74 21.9505 110.74 21.9505V7.35047C110.74 7.22047 110.75 7.10047 110.78 6.98047C110.83 6.01047 111.61 5.26047 112.59 5.26047H117.52M120.16 11.0405C120.16 9.41047 119.03 8.54047 117.21 8.54047H114.4V13.5905H117.28C119.1 13.5905 120.16 12.5005 120.16 11.0905V11.0405ZM88.4499 12.9605C87.9599 12.9605 87.5599 13.3705 87.5599 13.8705L87.5399 15.1605H89.4299V12.9605H88.4499ZM91.2199 12.9605V15.1605H92.1999C92.6899 15.1605 93.0899 14.7505 93.0899 14.2505L93.1099 12.9605H91.2199ZM89.4199 15.1605H91.2199V12.9605H89.4199V15.1605ZM51.1899 9.78047C51.6299 10.1705 52.1499 10.3705 52.7499 10.3705C53.3999 10.3705 53.9599 10.1405 54.4199 9.68047C54.8899 9.22047 55.1199 8.66047 55.1199 8.00047C55.1199 7.34047 54.8899 6.79047 54.4199 6.33047C54.3099 6.22047 54.1899 6.12047 54.0599 6.03047C53.6799 5.76047 53.2399 5.63047 52.7499 5.63047C52.0899 5.63047 51.5299 5.86047 51.0699 6.33047C50.6099 6.79047 50.3799 7.35047 50.3799 8.00047C50.3799 8.65047 50.6099 9.22047 51.0699 9.68047C51.1099 9.72047 51.1399 9.75047 51.1799 9.78047M50.2299 14.8105C50.2299 14.8105 50.5199 15.7105 50.5199 17.0305C50.5199 18.3505 49.9499 18.9605 49.5899 19.6605C49.2299 20.3705 49.3099 21.4505 50.0499 21.9005C50.7899 22.3505 51.8399 21.2205 52.3099 20.7305C52.7799 20.2405 54.0999 18.4405 54.5699 17.3105C55.0399 16.1805 55.7599 14.5305 55.3599 12.8305C55.0699 11.6005 53.7499 11.0405 52.4299 11.1005C51.1199 11.1605 50.4199 11.9505 50.2299 12.6505C49.9399 13.7605 50.2299 14.8005 50.2299 14.8005M38.0899 29.0605C38.8399 29.0605 39.4199 28.6705 39.4199 27.9805C39.4199 27.6605 39.3299 27.4005 39.1399 27.2305C38.9799 27.0805 38.7799 26.9905 38.4599 26.9505L38.0299 26.8805C37.8799 26.8605 37.7699 26.8105 37.6999 26.7405C37.6199 26.6705 37.5999 26.5805 37.5999 26.4805C37.5999 26.2305 37.7799 26.0305 38.1499 26.0305C38.3899 26.0305 38.6599 26.0605 38.8799 26.2805L39.3199 25.8405C39.0099 25.5405 38.6599 25.4205 38.1699 25.4205C37.3999 25.4205 36.9299 25.8705 36.9299 26.5105C36.9299 26.8105 37.0199 27.0505 37.1899 27.2105C37.3499 27.3705 37.5699 27.4605 37.8799 27.5105L38.3099 27.5805C38.4899 27.6005 38.5599 27.6405 38.6299 27.7005C38.7099 27.7805 38.7399 27.8805 38.7399 28.0005C38.7399 28.2905 38.5199 28.4505 38.0999 28.4505C37.7699 28.4505 37.4699 28.3705 37.2399 28.1505L36.7899 28.6005C37.1399 28.9605 37.5499 29.0705 38.0999 29.0705M40.0899 25.9805H40.7599V25.4505H40.0899V25.9805ZM40.0899 29.0405H40.7399V26.5005H40.0899V29.0405ZM42.3899 29.0705C43.0099 29.0705 43.4999 28.7905 43.4999 28.2205C43.4999 27.7705 43.2399 27.5005 42.7199 27.4505L42.3099 27.4105C42.1099 27.3905 42.0399 27.3105 42.0399 27.1805C42.0399 27.0505 42.1499 26.9305 42.4099 26.9305C42.6399 26.9305 42.8699 26.9705 43.0199 27.1105L43.4199 26.7005C43.1699 26.4705 42.8299 26.3905 42.4199 26.3905C41.8899 26.3905 41.4099 26.6805 41.4099 27.2205C41.4099 27.7005 41.6999 27.9105 42.1599 27.9505L42.5799 27.9905C42.7899 28.0105 42.8599 28.1005 42.8599 28.2305C42.8599 28.4305 42.6199 28.5005 42.3999 28.5005C42.1999 28.5005 41.9099 28.4705 41.6999 28.2505L41.2699 28.6805C41.6099 29.0105 41.9699 29.0605 42.3799 29.0605M45.2299 29.0305V28.4805H44.9899C44.8299 28.4805 44.7599 28.3905 44.7599 28.2405V26.9905H45.2199V26.4905H44.7599V25.7205H44.1099V26.4905H43.8299V26.9905H44.1099V28.2805C44.1099 28.6505 44.3399 29.0305 44.8699 29.0305H45.2299ZM48.0099 27.9305V27.6505C48.0099 26.9105 47.5999 26.3805 46.8699 26.3805C46.1899 26.3805 45.7299 26.8605 45.7299 27.7205C45.7299 28.7805 46.3199 29.0605 46.9399 29.0605C47.4099 29.0605 47.6699 28.9205 47.9399 28.6505L47.5399 28.2605C47.3699 28.4205 47.2299 28.5105 46.9499 28.5105C46.5799 28.5105 46.3799 28.2705 46.3799 27.9305H48.0199H48.0099ZM47.3099 27.2005C47.3599 27.2905 47.3699 27.3705 47.3699 27.4805H46.3799C46.3799 27.3605 46.3899 27.2905 46.4399 27.2005C46.5099 27.0405 46.6599 26.9305 46.8799 26.9305C47.0999 26.9305 47.2499 27.0405 47.3199 27.2005M52.3799 29.0305V27.3605C52.3799 27.0705 52.2999 26.8305 52.0899 26.6205C51.9399 26.4705 51.7099 26.3905 51.4499 26.3905C51.1199 26.3905 50.8899 26.4905 50.6699 26.7205C50.4999 26.4905 50.2699 26.3905 49.9799 26.3905C49.7399 26.3905 49.4999 26.4905 49.3299 26.6605V26.4205H48.6899V29.0405H49.3399V27.4605C49.3399 27.1005 49.5699 26.9805 49.7799 26.9805C49.9899 26.9805 50.2099 27.1005 50.2099 27.4605V29.0405H50.8599V27.4405C50.8599 27.1005 51.0999 26.9805 51.2999 26.9805C51.4999 26.9805 51.7299 27.1005 51.7299 27.4605V29.0405H52.3799V29.0305ZM55.1299 29.0305V27.3105C55.1299 26.7005 54.7499 26.3905 54.0199 26.3905C53.5799 26.3905 53.3399 26.4805 53.0799 26.7605L53.4899 27.1705C53.6299 27.0105 53.7599 26.9405 53.9899 26.9405C54.3399 26.9405 54.4799 27.0705 54.4799 27.3505V27.4805H53.8699C53.2499 27.4805 52.9699 27.8205 52.9699 28.2405C52.9699 28.4705 53.0499 28.6805 53.1899 28.8305C53.3399 28.9805 53.5599 29.0605 53.8599 29.0605C54.1599 29.0605 54.3299 28.9805 54.4999 28.8105V29.0405H55.1399L55.1299 29.0305ZM54.4799 28.0705C54.4799 28.2405 54.4599 28.3405 54.3799 28.4005C54.2699 28.5005 54.1499 28.5205 53.9899 28.5205C53.7199 28.5205 53.5899 28.4005 53.5899 28.2205C53.5899 28.0205 53.7099 27.9205 53.9799 27.9205H54.4799V28.0605V28.0705ZM57.1799 29.0305H57.8799V25.4605H57.1799V29.0305ZM60.8999 29.0305V27.3605C60.8999 27.0705 60.8499 26.8305 60.6299 26.6205C60.4799 26.4705 60.2699 26.3905 60.0099 26.3905C59.7699 26.3905 59.5299 26.4805 59.3599 26.6605V26.4205H58.7199V29.0405H59.3699V27.4605C59.3699 27.1005 59.5999 26.9805 59.8099 26.9805C60.0199 26.9805 60.2399 27.1005 60.2399 27.4605V29.0405H60.8899L60.8999 29.0305ZM62.8399 29.0305V28.4805H62.5999C62.4399 28.4805 62.3699 28.3905 62.3699 28.2405V26.9905H62.8299V26.4905H62.3699V25.7205H61.7199V26.4905H61.4399V26.9905H61.7199V28.2805C61.7199 28.6505 61.9499 29.0305 62.4799 29.0305H62.8399ZM65.6199 27.9305V27.6505C65.6199 26.9105 65.2099 26.3805 64.4799 26.3805C63.7999 26.3805 63.3399 26.8605 63.3399 27.7205C63.3399 28.7805 63.9299 29.0605 64.5499 29.0605C65.0199 29.0605 65.2799 28.9205 65.5499 28.6505L65.1499 28.2605C64.9799 28.4205 64.8399 28.5105 64.5599 28.5105C64.1899 28.5105 63.9899 28.2705 63.9899 27.9305H65.6299H65.6199ZM64.9199 27.2005C64.9699 27.2905 64.9799 27.3705 64.9799 27.4805H63.9899C63.9899 27.3605 63.9999 27.2905 64.0499 27.2005C64.1199 27.0405 64.2699 26.9305 64.4899 26.9305C64.7099 26.9305 64.8599 27.0405 64.9299 27.2005M67.1999 30.0205C67.8999 30.0205 68.3499 29.5605 68.3499 28.9405V26.4205H67.7199V26.6705C67.5399 26.4705 67.3599 26.3905 67.0799 26.3905C66.8199 26.3905 66.5999 26.4805 66.4499 26.6205C66.1999 26.8705 66.1799 27.2005 66.1799 27.6505C66.1799 28.1005 66.1999 28.4405 66.4499 28.6905C66.5999 28.8405 66.8199 28.9205 67.0699 28.9205C67.3199 28.9205 67.5199 28.8505 67.6899 28.6605V28.9305C67.6899 29.2005 67.5499 29.4705 67.1599 29.4705C66.9399 29.4705 66.7899 29.4105 66.6499 29.2705L66.2399 29.6805C66.5099 29.9405 66.7899 30.0205 67.1899 30.0205M67.2599 26.9705C67.6499 26.9705 67.6899 27.3005 67.6899 27.6505C67.6899 28.0005 67.6399 28.3305 67.2599 28.3305C66.8799 28.3305 66.8299 27.9905 66.8299 27.6505C66.8299 27.3105 66.8699 26.9705 67.2599 26.9705ZM71.0499 26.6305C70.8699 26.4505 70.6899 26.3805 70.4299 26.3805C70.1499 26.3805 69.8999 26.5105 69.7699 26.6605V26.4105H69.1299V29.0305H69.7799V27.4505C69.7799 27.1205 69.9999 26.9705 70.1999 26.9705C70.3599 26.9705 70.4499 27.0205 70.5499 27.1305L71.0399 26.6305H71.0499ZM73.4099 29.0305V27.3105C73.4099 26.7005 73.0299 26.3905 72.2999 26.3905C71.8599 26.3905 71.6199 26.4805 71.3599 26.7605L71.7699 27.1705C71.9099 27.0105 72.0399 26.9405 72.2699 26.9405C72.6199 26.9405 72.7599 27.0705 72.7599 27.3505V27.4805H72.1499C71.5299 27.4805 71.2499 27.8205 71.2499 28.2405C71.2499 28.4705 71.3299 28.6805 71.4699 28.8305C71.6199 28.9805 71.8399 29.0605 72.1399 29.0605C72.4399 29.0605 72.6099 28.9805 72.7799 28.8105V29.0405H73.4199L73.4099 29.0305ZM72.7599 28.0705C72.7599 28.2405 72.7399 28.3405 72.6599 28.4005C72.5499 28.5005 72.4299 28.5205 72.2699 28.5205C71.9999 28.5205 71.8699 28.4005 71.8699 28.2205C71.8699 28.0205 71.9899 27.9205 72.2599 27.9205H72.7599V28.0605V28.0705ZM76.2599 29.0305V25.4605H75.6099V26.6505C75.4399 26.4605 75.2399 26.3905 74.9699 26.3905C74.6999 26.3905 74.4799 26.4805 74.3399 26.6305C74.0899 26.8905 74.0699 27.2905 74.0699 27.7305C74.0699 28.1705 74.0899 28.5805 74.3399 28.8305C74.4899 28.9805 74.7199 29.0705 74.9799 29.0705C75.2599 29.0705 75.4499 28.9905 75.6299 28.7905V29.0405H76.2699L76.2599 29.0305ZM75.1599 26.9705C75.5499 26.9705 75.6099 27.3005 75.6099 27.7205C75.6099 28.1405 75.5499 28.4705 75.1599 28.4705C74.7699 28.4705 74.7199 28.1405 74.7199 27.7205C74.7199 27.3005 74.7699 26.9705 75.1599 26.9705ZM78.8599 28.7405C79.0999 28.4905 79.1599 28.1905 79.1599 27.7205C79.1599 27.2505 79.0999 26.9605 78.8599 26.7105C78.6899 26.5305 78.4299 26.3905 78.0499 26.3905C77.6699 26.3905 77.4099 26.5405 77.2399 26.7105C76.9999 26.9605 76.9399 27.2505 76.9399 27.7205C76.9399 28.1905 76.9999 28.4905 77.2399 28.7405C77.4099 28.9105 77.6599 29.0605 78.0499 29.0605C78.4399 29.0605 78.6999 28.9105 78.8599 28.7405ZM78.3499 27.0905C78.4899 27.2205 78.4999 27.4605 78.4999 27.7205C78.4999 27.9805 78.4899 28.2305 78.3499 28.3605C78.2699 28.4405 78.1699 28.4805 78.0399 28.4805C77.9099 28.4805 77.8099 28.4405 77.7399 28.3605C77.5999 28.2305 77.5899 27.9905 77.5899 27.7205C77.5899 27.4505 77.6099 27.2205 77.7399 27.0905C77.8199 27.0105 77.9199 26.9705 78.0399 26.9705C78.1599 26.9705 78.2699 27.0105 78.3499 27.0905ZM83.1499 29.0305V25.4605H82.4999V26.6505C82.3299 26.4605 82.1299 26.3905 81.8599 26.3905C81.5899 26.3905 81.3699 26.4805 81.2299 26.6305C80.9799 26.8905 80.9599 27.2905 80.9599 27.7305C80.9599 28.1705 80.9799 28.5805 81.2299 28.8305C81.3799 28.9805 81.6099 29.0705 81.8699 29.0705C82.1499 29.0705 82.3399 28.9905 82.5199 28.7905V29.0405H83.1599L83.1499 29.0305ZM82.0499 26.9705C82.4399 26.9705 82.4999 27.3005 82.4999 27.7205C82.4999 28.1405 82.4399 28.4705 82.0499 28.4705C81.6599 28.4705 81.6099 28.1405 81.6099 27.7205C81.6099 27.3005 81.6599 26.9705 82.0499 26.9705ZM86.0999 27.9205V27.6405C86.0999 26.9005 85.6899 26.3705 84.9599 26.3705C84.2799 26.3705 83.8199 26.8505 83.8199 27.7105C83.8199 28.7705 84.4099 29.0505 85.0299 29.0505C85.4999 29.0505 85.7599 28.9105 86.0299 28.6405L85.6299 28.2505C85.4599 28.4105 85.3199 28.5005 85.0399 28.5005C84.6699 28.5005 84.4699 28.2605 84.4699 27.9205H86.1099H86.0999ZM85.3999 27.1905C85.4499 27.2805 85.4599 27.3605 85.4599 27.4705H84.4699C84.4699 27.3505 84.4799 27.2805 84.5299 27.1905C84.5999 27.0305 84.7499 26.9205 84.9699 26.9205C85.1899 26.9205 85.3399 27.0305 85.4099 27.1905M90.8199 29.0205L89.5099 25.4505H88.9599L87.6599 29.0205H88.3899L88.6099 28.3905H89.8799L90.0899 29.0205H90.8199ZM89.6999 27.8005H88.8099L89.2599 26.5005L89.6999 27.8005ZM93.3599 29.0205V25.4505H92.7099V26.6405C92.5399 26.4505 92.3399 26.3805 92.0699 26.3805C91.7999 26.3805 91.5799 26.4705 91.4399 26.6205C91.1899 26.8805 91.1699 27.2805 91.1699 27.7205C91.1699 28.1605 91.1899 28.5705 91.4399 28.8205C91.5899 28.9705 91.8199 29.0605 92.0799 29.0605C92.3599 29.0605 92.5499 28.9805 92.7299 28.7805V29.0305H93.3699L93.3599 29.0205ZM92.2599 26.9605C92.6499 26.9605 92.7099 27.2905 92.7099 27.7105C92.7099 28.1305 92.6499 28.4605 92.2599 28.4605C91.8699 28.4605 91.8199 28.1305 91.8199 27.7105C91.8199 27.2905 91.8699 26.9605 92.2599 26.9605ZM97.8499 29.0205V27.3505C97.8499 27.0605 97.7699 26.8205 97.5599 26.6105C97.4099 26.4605 97.1799 26.3805 96.9199 26.3805C96.5899 26.3805 96.3599 26.4805 96.1399 26.7105C95.9699 26.4805 95.7399 26.3805 95.4499 26.3805C95.2099 26.3805 94.9699 26.4805 94.7999 26.6505V26.4105H94.1599V29.0305H94.8099V27.4505C94.8099 27.0905 95.0399 26.9705 95.2499 26.9705C95.4599 26.9705 95.6799 27.0905 95.6799 27.4505V29.0305H96.3299V27.4305C96.3299 27.0905 96.5699 26.9705 96.7699 26.9705C96.9699 26.9705 97.1999 27.0905 97.1999 27.4505V29.0305H97.8499V29.0205ZM98.6099 25.9605H99.2799V25.4305H98.6099V25.9605ZM98.6199 29.0205H99.2699V26.4805H98.6199V29.0205ZM102.24 29.0205V27.3505C102.24 27.0605 102.19 26.8205 101.97 26.6105C101.82 26.4605 101.61 26.3805 101.35 26.3805C101.11 26.3805 100.87 26.4705 100.7 26.6505V26.4105H100.06V29.0305H100.71V27.4505C100.71 27.0905 100.94 26.9705 101.15 26.9705C101.36 26.9705 101.58 27.0905 101.58 27.4505V29.0305H102.23L102.24 29.0205ZM103 25.9605H103.67V25.4305H103V25.9605ZM103 29.0205H103.65V26.4805H103V29.0205ZM105.3 29.0505C105.92 29.0505 106.41 28.7705 106.41 28.2005C106.41 27.7505 106.15 27.4805 105.63 27.4305L105.22 27.3905C105.02 27.3705 104.95 27.2905 104.95 27.1605C104.95 27.0305 105.06 26.9105 105.32 26.9105C105.55 26.9105 105.78 26.9505 105.93 27.0905L106.33 26.6805C106.08 26.4505 105.74 26.3705 105.33 26.3705C104.8 26.3705 104.32 26.6605 104.32 27.2005C104.32 27.6805 104.61 27.8905 105.07 27.9305L105.49 27.9705C105.7 27.9905 105.77 28.0805 105.77 28.2105C105.77 28.4105 105.53 28.4805 105.31 28.4805C105.11 28.4805 104.82 28.4505 104.61 28.2305L104.18 28.6605C104.52 28.9905 104.88 29.0405 105.29 29.0405M108.14 29.0105V28.4605H107.9C107.74 28.4605 107.67 28.3705 107.67 28.2205V26.9705H108.13V26.4705H107.67V25.7005H107.02V26.4705H106.74V26.9705H107.02V28.2605C107.02 28.6305 107.25 29.0105 107.78 29.0105H108.14ZM110.71 26.6105C110.53 26.4305 110.35 26.3605 110.09 26.3605C109.81 26.3605 109.56 26.4905 109.43 26.6405V26.3905H108.79V29.0105H109.44V27.4305C109.44 27.1005 109.66 26.9505 109.86 26.9505C110.02 26.9505 110.11 27.0005 110.21 27.1105L110.7 26.6105H110.71ZM113.07 29.0105V27.2905C113.07 26.6805 112.69 26.3705 111.96 26.3705C111.52 26.3705 111.28 26.4605 111.02 26.7405L111.43 27.1505C111.57 26.9905 111.7 26.9205 111.93 26.9205C112.28 26.9205 112.42 27.0505 112.42 27.3305V27.4605H111.81C111.19 27.4605 110.91 27.8005 110.91 28.2205C110.91 28.4505 110.99 28.6605 111.13 28.8105C111.28 28.9605 111.5 29.0405 111.8 29.0405C112.1 29.0405 112.27 28.9605 112.44 28.7905V29.0205H113.08L113.07 29.0105ZM112.42 28.0505C112.42 28.2205 112.4 28.3205 112.32 28.3805C112.21 28.4805 112.09 28.5005 111.93 28.5005C111.66 28.5005 111.53 28.3805 111.53 28.2005C111.53 28.0005 111.65 27.9005 111.92 27.9005H112.42V28.0405V28.0505ZM114.88 29.0405C115.24 29.0405 115.51 28.9205 115.74 28.6805L115.3 28.2405C115.16 28.3905 115.05 28.4505 114.88 28.4505C114.72 28.4505 114.6 28.3905 114.51 28.2805C114.41 28.1505 114.36 27.9705 114.36 27.7005C114.36 27.4305 114.4 27.2505 114.51 27.1205C114.6 27.0005 114.73 26.9505 114.88 26.9505C115.05 26.9505 115.17 27.0105 115.3 27.1605L115.74 26.7205C115.51 26.4805 115.24 26.3705 114.88 26.3705C114.36 26.3705 113.71 26.6505 113.71 27.7105C113.71 28.7705 114.36 29.0505 114.88 29.0505M116.3 25.9605H116.97V25.4305H116.3V25.9605ZM116.31 29.0205H116.96V26.4805H116.31V29.0205ZM119.56 28.7305C119.8 28.4805 119.86 28.1805 119.86 27.7105C119.86 27.2405 119.8 26.9505 119.56 26.7005C119.39 26.5205 119.13 26.3805 118.75 26.3805C118.37 26.3805 118.11 26.5305 117.94 26.7005C117.7 26.9505 117.64 27.2405 117.64 27.7105C117.64 28.1805 117.7 28.4805 117.94 28.7305C118.11 28.9005 118.36 29.0505 118.75 29.0505C119.14 29.0505 119.4 28.9005 119.56 28.7305ZM119.05 27.0805C119.19 27.2105 119.2 27.4505 119.2 27.7105C119.2 27.9705 119.19 28.2205 119.05 28.3505C118.97 28.4305 118.87 28.4705 118.74 28.4705C118.61 28.4705 118.51 28.4305 118.44 28.3505C118.3 28.2205 118.29 27.9805 118.29 27.7105C118.29 27.4405 118.3 27.2105 118.44 27.0805C118.52 27.0005 118.62 26.9605 118.74 26.9605C118.86 26.9605 118.97 27.0005 119.05 27.0805ZM119.48 25.1405H118.79L118.47 25.9905H118.91L119.48 25.1405ZM122.71 29.0305V27.3605C122.71 27.0705 122.66 26.8305 122.44 26.6205C122.29 26.4705 122.08 26.3905 121.82 26.3905C121.58 26.3905 121.34 26.4805 121.17 26.6605V26.4205H120.53V29.0405H121.18V27.4605C121.18 27.1005 121.41 26.9805 121.62 26.9805C121.83 26.9805 122.05 27.1005 122.05 27.4605V29.0405H122.7L122.71 29.0305ZM39.3599 32.1005V31.4805H37.0099V35.0505H37.7099V33.6005H39.1199V32.9805H37.7099V32.1005H39.3699H39.3599ZM40.0399 31.9905H40.7099V31.4605H40.0399V31.9905ZM40.0499 35.0505H40.6999V32.5105H40.0499V35.0505ZM43.7399 35.0505V33.3805C43.7399 33.0905 43.6899 32.8505 43.4699 32.6405C43.3199 32.4905 43.1099 32.4105 42.8499 32.4105C42.6099 32.4105 42.3699 32.5005 42.1999 32.6805V32.4405H41.5599V35.0605H42.2099V33.4805C42.2099 33.1205 42.4399 33.0005 42.6499 33.0005C42.8599 33.0005 43.0799 33.1205 43.0799 33.4805V35.0605H43.7299L43.7399 35.0505ZM46.5599 35.0505V33.3305C46.5599 32.7205 46.1799 32.4105 45.4499 32.4105C45.0099 32.4105 44.7699 32.5005 44.5099 32.7805L44.9199 33.1905C45.0599 33.0305 45.1899 32.9605 45.4199 32.9605C45.7699 32.9605 45.9099 33.0905 45.9099 33.3705V33.5005H45.2999C44.6799 33.5005 44.3999 33.8405 44.3999 34.2605C44.3999 34.4905 44.4799 34.7005 44.6199 34.8505C44.7699 35.0005 44.9899 35.0805 45.2899 35.0805C45.5899 35.0805 45.7599 35.0005 45.9299 34.8305V35.0605H46.5699L46.5599 35.0505ZM45.9099 34.0905C45.9099 34.2605 45.8899 34.3605 45.8099 34.4205C45.6999 34.5205 45.5799 34.5405 45.4199 34.5405C45.1499 34.5405 45.0199 34.4205 45.0199 34.2405C45.0199 34.0405 45.1399 33.9405 45.4099 33.9405H45.9099V34.0805V34.0905ZM49.5699 35.0505V33.3805C49.5699 33.0905 49.5199 32.8505 49.2999 32.6405C49.1499 32.4905 48.9399 32.4105 48.6799 32.4105C48.4399 32.4105 48.1999 32.5005 48.0299 32.6805V32.4405H47.3899V35.0605H48.0399V33.4805C48.0399 33.1205 48.2699 33.0005 48.4799 33.0005C48.6899 33.0005 48.9099 33.1205 48.9099 33.4805V35.0605H49.5599L49.5699 35.0505ZM51.4499 35.0805C51.8099 35.0805 52.0799 34.9605 52.3099 34.7205L51.8699 34.2805C51.7299 34.4305 51.6199 34.4905 51.4499 34.4905C51.2899 34.4905 51.1699 34.4305 51.0799 34.3205C50.9799 34.1905 50.9299 34.0105 50.9299 33.7405C50.9299 33.4705 50.9699 33.2905 51.0799 33.1605C51.1699 33.0405 51.2999 32.9905 51.4499 32.9905C51.6199 32.9905 51.7399 33.0505 51.8699 33.2005L52.3099 32.7605C52.0799 32.5205 51.8099 32.4105 51.4499 32.4105C50.9299 32.4105 50.2799 32.6905 50.2799 33.7505C50.2799 34.8105 50.9299 35.0905 51.4499 35.0905M52.9399 32.0005H53.6099V31.4705H52.9399V32.0005ZM52.9499 35.0605H53.5999V32.5205H52.9499V35.0605ZM56.6099 33.9505V33.6705C56.6099 32.9305 56.1999 32.4005 55.4699 32.4005C54.7899 32.4005 54.3299 32.8805 54.3299 33.7405C54.3299 34.8005 54.9199 35.0805 55.5399 35.0805C56.0099 35.0805 56.2699 34.9405 56.5399 34.6705L56.1399 34.2805C55.9699 34.4405 55.8299 34.5305 55.5499 34.5305C55.1799 34.5305 54.9799 34.2905 54.9799 33.9505H56.6199H56.6099ZM55.9099 33.2205C55.9599 33.3105 55.9699 33.3905 55.9699 33.5005H54.9799C54.9799 33.3805 54.9899 33.3105 55.0399 33.2205C55.1099 33.0605 55.2599 32.9505 55.4799 32.9505C55.6999 32.9505 55.8499 33.0605 55.9199 33.2205M59.2699 32.6505C59.0899 32.4705 58.9099 32.4005 58.6499 32.4005C58.3699 32.4005 58.1199 32.5305 57.9899 32.6805V32.4305H57.3499V35.0505H57.9999V33.4705C57.9999 33.1405 58.2199 32.9905 58.4199 32.9905C58.5799 32.9905 58.6699 33.0405 58.7699 33.1505L59.2599 32.6505H59.2699ZM61.6999 35.0505V33.3305C61.6999 32.7205 61.3199 32.4105 60.5899 32.4105C60.1499 32.4105 59.9099 32.5005 59.6499 32.7805L60.0599 33.1905C60.1999 33.0305 60.3299 32.9605 60.5599 32.9605C60.9099 32.9605 61.0499 33.0905 61.0499 33.3705V33.5005H60.4399C59.8199 33.5005 59.5399 33.8405 59.5399 34.2605C59.5399 34.4905 59.6199 34.7005 59.7599 34.8505C59.9099 35.0005 60.1299 35.0805 60.4299 35.0805C60.7299 35.0805 60.8999 35.0005 61.0699 34.8305V35.0605H61.7099L61.6999 35.0505ZM61.0499 34.0905C61.0499 34.2605 61.0299 34.3605 60.9499 34.4205C60.8399 34.5205 60.7199 34.5405 60.5599 34.5405C60.2899 34.5405 60.1599 34.4205 60.1599 34.2405C60.1599 34.0405 60.2799 33.9405 60.5499 33.9405H61.0499V34.0805V34.0905ZM65.9199 35.0505V31.4805H65.2699V32.6705C65.0999 32.4805 64.8999 32.4105 64.6299 32.4105C64.3599 32.4105 64.1399 32.5005 63.9999 32.6505C63.7499 32.9105 63.7299 33.3105 63.7299 33.7505C63.7299 34.1905 63.7499 34.6005 63.9999 34.8505C64.1499 35.0005 64.3799 35.0905 64.6399 35.0905C64.9199 35.0905 65.1099 35.0105 65.2899 34.8105V35.0605H65.9299L65.9199 35.0505ZM64.8199 32.9905C65.2099 32.9905 65.2699 33.3205 65.2699 33.7405C65.2699 34.1605 65.2099 34.4905 64.8199 34.4905C64.4299 34.4905 64.3799 34.1605 64.3799 33.7405C64.3799 33.3205 64.4299 32.9905 64.8199 32.9905ZM68.9399 33.9405V33.6605C68.9399 32.9205 68.5299 32.3905 67.7999 32.3905C67.1199 32.3905 66.6599 32.8705 66.6599 33.7305C66.6599 34.7905 67.2499 35.0705 67.8699 35.0705C68.3399 35.0705 68.5999 34.9305 68.8699 34.6605L68.4699 34.2705C68.2999 34.4305 68.1599 34.5205 67.8799 34.5205C67.5099 34.5205 67.3099 34.2805 67.3099 33.9405H68.9499H68.9399ZM68.2399 33.2105C68.2899 33.3005 68.2999 33.3805 68.2999 33.4905H67.3099C67.3099 33.3705 67.3199 33.3005 67.3699 33.2105C67.4399 33.0505 67.5899 32.9405 67.8099 32.9405C68.0299 32.9405 68.1799 33.0505 68.2499 33.2105M72.0999 35.0405V34.4905H71.8499C71.6799 34.4905 71.6199 34.4105 71.6199 34.2505V31.4605H70.9699V34.2905C70.9699 34.6605 71.1999 35.0405 71.7299 35.0405H72.0999ZM74.5099 34.7505C74.7499 34.5005 74.8099 34.2005 74.8099 33.7305C74.8099 33.2605 74.7499 32.9705 74.5099 32.7205C74.3399 32.5405 74.0799 32.4005 73.6999 32.4005C73.3199 32.4005 73.0599 32.5505 72.8899 32.7205C72.6499 32.9705 72.5899 33.2605 72.5899 33.7305C72.5899 34.2005 72.6499 34.5005 72.8899 34.7505C73.0599 34.9205 73.3099 35.0705 73.6999 35.0705C74.0899 35.0705 74.3499 34.9205 74.5099 34.7505ZM73.9999 33.1005C74.1399 33.2305 74.1499 33.4705 74.1499 33.7305C74.1499 33.9905 74.1399 34.2405 73.9999 34.3705C73.9199 34.4505 73.8199 34.4905 73.6899 34.4905C73.5599 34.4905 73.4599 34.4505 73.3899 34.3705C73.2499 34.2405 73.2399 34.0005 73.2399 33.7305C73.2399 33.4605 73.2599 33.2305 73.3899 33.1005C73.4699 33.0205 73.5699 32.9805 73.6899 32.9805C73.8099 32.9805 73.9199 33.0205 73.9999 33.1005ZM76.4199 35.0705C77.0399 35.0705 77.5299 34.7905 77.5299 34.2205C77.5299 33.7705 77.2699 33.5005 76.7499 33.4505L76.3399 33.4105C76.1399 33.3905 76.0699 33.3105 76.0699 33.1805C76.0699 33.0505 76.1799 32.9305 76.4399 32.9305C76.6699 32.9305 76.8999 32.9705 77.0499 33.1105L77.4499 32.7005C77.1999 32.4705 76.8599 32.3905 76.4499 32.3905C75.9199 32.3905 75.4399 32.6805 75.4399 33.2205C75.4399 33.7005 75.7299 33.9105 76.1899 33.9505L76.6099 33.9905C76.8199 34.0105 76.8899 34.1005 76.8899 34.2305C76.8899 34.4305 76.6499 34.5005 76.4299 34.5005C76.2299 34.5005 75.9399 34.4705 75.7299 34.2505L75.2999 34.6805C75.6399 35.0105 75.9999 35.0605 76.4099 35.0605M82.2599 35.0305L81.4599 33.4905C81.8099 33.3605 82.1099 33.0505 82.1099 32.5505C82.1099 31.9505 81.6799 31.4605 80.9499 31.4605H79.5499V35.0305H80.2499V33.6005H80.7499L81.4499 35.0305H82.2599ZM80.9099 32.0805C81.2199 32.0805 81.4199 32.2805 81.4199 32.5505C81.4199 32.8205 81.2199 33.0205 80.9099 33.0205H80.2499V32.0805H80.9099ZM84.9199 33.9305V33.6505C84.9199 32.9105 84.5099 32.3805 83.7799 32.3805C83.0999 32.3805 82.6399 32.8605 82.6399 33.7205C82.6399 34.7805 83.2299 35.0605 83.8499 35.0605C84.3199 35.0605 84.5799 34.9205 84.8499 34.6505L84.4499 34.2605C84.2799 34.4205 84.1399 34.5105 83.8599 34.5105C83.4899 34.5105 83.2899 34.2705 83.2899 33.9305H84.9299H84.9199ZM84.2199 33.2005C84.2699 33.2905 84.2799 33.3705 84.2799 33.4805H83.2899C83.2899 33.3605 83.2999 33.2905 83.3499 33.2005C83.4199 33.0405 83.5699 32.9305 83.7899 32.9305C84.0099 32.9305 84.1599 33.0405 84.2299 33.2005M86.7099 35.0605C87.0699 35.0605 87.3399 34.9405 87.5699 34.7005L87.1299 34.2605C86.9899 34.4105 86.8799 34.4705 86.7099 34.4705C86.5499 34.4705 86.4299 34.4105 86.3399 34.3005C86.2399 34.1705 86.1899 33.9905 86.1899 33.7205C86.1899 33.4505 86.2299 33.2705 86.3399 33.1405C86.4299 33.0205 86.5599 32.9705 86.7099 32.9705C86.8799 32.9705 86.9999 33.0305 87.1299 33.1805L87.5699 32.7405C87.3399 32.5005 87.0699 32.3905 86.7099 32.3905C86.1899 32.3905 85.5399 32.6705 85.5399 33.7305C85.5399 34.7905 86.1899 35.0705 86.7099 35.0705M90.3599 35.0405V32.4205H89.7099V34.0005C89.7099 34.3605 89.4799 34.4805 89.2699 34.4805C89.0599 34.4805 88.8399 34.3605 88.8399 34.0005V32.4205H88.1899V34.0905C88.1899 34.3805 88.2499 34.6205 88.4599 34.8305C88.5999 34.9805 88.8199 35.0605 89.0799 35.0605C89.3199 35.0605 89.5599 34.9705 89.7299 34.7905V35.0305H90.3699L90.3599 35.0405ZM93.1399 32.6405C92.9599 32.4605 92.7799 32.3905 92.5199 32.3905C92.2399 32.3905 91.9899 32.5205 91.8599 32.6705V32.4205H91.2199V35.0405H91.8699V33.4605C91.8699 33.1305 92.0899 32.9805 92.2899 32.9805C92.4499 32.9805 92.5399 33.0305 92.6399 33.1405L93.1299 32.6405H93.1399ZM94.4499 35.0705C95.0699 35.0705 95.5599 34.7905 95.5599 34.2205C95.5599 33.7705 95.2999 33.5005 94.7799 33.4505L94.3699 33.4105C94.1699 33.3905 94.0999 33.3105 94.0999 33.1805C94.0999 33.0505 94.2099 32.9305 94.4699 32.9305C94.6999 32.9305 94.9299 32.9705 95.0799 33.1105L95.4799 32.7005C95.2299 32.4705 94.8899 32.3905 94.4799 32.3905C93.9499 32.3905 93.4699 32.6805 93.4699 33.2205C93.4699 33.7005 93.7599 33.9105 94.2199 33.9505L94.6399 33.9905C94.8499 34.0105 94.9199 34.1005 94.9199 34.2305C94.9199 34.4305 94.6799 34.5005 94.4599 34.5005C94.2599 34.5005 93.9699 34.4705 93.7599 34.2505L93.3299 34.6805C93.6699 35.0105 94.0299 35.0605 94.4399 35.0605M98.0399 34.7405C98.2799 34.4905 98.3399 34.1905 98.3399 33.7205C98.3399 33.2505 98.2799 32.9605 98.0399 32.7105C97.8699 32.5305 97.6099 32.3905 97.2299 32.3905C96.8499 32.3905 96.5899 32.5405 96.4199 32.7105C96.1799 32.9605 96.1199 33.2505 96.1199 33.7205C96.1199 34.1905 96.1799 34.4905 96.4199 34.7405C96.5899 34.9105 96.8399 35.0605 97.2299 35.0605C97.6199 35.0605 97.8799 34.9105 98.0399 34.7405ZM97.5299 33.0905C97.6699 33.2205 97.6799 33.4605 97.6799 33.7205C97.6799 33.9805 97.6699 34.2305 97.5299 34.3605C97.4499 34.4405 97.3499 34.4805 97.2199 34.4805C97.0899 34.4805 96.9899 34.4405 96.9199 34.3605C96.7799 34.2305 96.7699 33.9905 96.7699 33.7205C96.7699 33.4505 96.7899 33.2205 96.9199 33.0905C96.9999 33.0105 97.0999 32.9705 97.2199 32.9705C97.3399 32.9705 97.4499 33.0105 97.5299 33.0905ZM99.9499 35.0605C100.57 35.0605 101.06 34.7805 101.06 34.2105C101.06 33.7605 100.8 33.4905 100.28 33.4405L99.8699 33.4005C99.6699 33.3805 99.5999 33.3005 99.5999 33.1705C99.5999 33.0405 99.7099 32.9205 99.9699 32.9205C100.2 32.9205 100.43 32.9605 100.58 33.1005L100.98 32.6905C100.73 32.4605 100.39 32.3805 99.9799 32.3805C99.4499 32.3805 98.9699 32.6705 98.9699 33.2105C98.9699 33.6905 99.2599 33.9005 99.7199 33.9405L100.14 33.9805C100.35 34.0005 100.42 34.0905 100.42 34.2205C100.42 34.4205 100.18 34.4905 99.9599 34.4905C99.7599 34.4905 99.4699 34.4605 99.2599 34.2405L98.8299 34.6705C99.1699 35.0005 99.5299 35.0505 99.9399 35.0505M104.47 33.6705C105.21 33.6705 105.65 33.1605 105.65 32.5605C105.65 31.9605 105.21 31.4505 104.47 31.4505H103.09V35.0205H103.79V33.6705H104.48M104.45 32.0605C104.77 32.0605 104.97 32.2605 104.97 32.5505C104.97 32.8405 104.77 33.0405 104.45 33.0405H103.8V32.0605H104.45ZM108.48 35.0105V32.3905H107.83V33.9705C107.83 34.3305 107.6 34.4505 107.39 34.4505C107.18 34.4505 106.96 34.3305 106.96 33.9705V32.3905H106.31V34.0605C106.31 34.3505 106.37 34.5905 106.58 34.8005C106.73 34.9505 106.94 35.0305 107.2 35.0305C107.44 35.0305 107.68 34.9405 107.85 34.7605V35.0005H108.49L108.48 35.0105ZM108.12 31.1205H107.43L107.11 31.9705H107.55L108.12 31.1205ZM111.26 34.8005C111.51 34.5405 111.53 34.1405 111.53 33.7005C111.53 33.2605 111.51 32.8605 111.26 32.6005C111.11 32.4505 110.89 32.3605 110.63 32.3605C110.37 32.3605 110.16 32.4305 110 32.6205V31.4305H109.35V35.0005H109.98V34.7505C110.16 34.9505 110.35 35.0305 110.63 35.0305C110.89 35.0305 111.12 34.9405 111.26 34.7905M110.44 32.9405C110.83 32.9405 110.88 33.2705 110.88 33.6905C110.88 34.1105 110.83 34.4405 110.44 34.4405C110.05 34.4405 110 34.1105 110 33.6905C110 33.2705 110.05 32.9405 110.44 32.9405ZM113.4 35.0005V34.4505H113.15C112.98 34.4505 112.92 34.3705 112.92 34.2105V31.4205H112.27V34.2505C112.27 34.6205 112.5 35.0005 113.03 35.0005H113.4ZM114.05 31.9405H114.72V31.4105H114.05V31.9405ZM114.06 35.0005H114.71V32.4605H114.06V35.0005ZM116.62 35.0305C116.98 35.0305 117.25 34.9105 117.48 34.6705L117.04 34.2305C116.9 34.3805 116.79 34.4405 116.62 34.4405C116.46 34.4405 116.34 34.3805 116.25 34.2705C116.15 34.1405 116.1 33.9605 116.1 33.6905C116.1 33.4205 116.14 33.2405 116.25 33.1105C116.34 32.9905 116.47 32.9405 116.62 32.9405C116.79 32.9405 116.91 33.0005 117.04 33.1505L117.48 32.7105C117.25 32.4705 116.98 32.3605 116.62 32.3605C116.1 32.3605 115.45 32.6405 115.45 33.7005C115.45 34.7605 116.1 35.0405 116.62 35.0405M119.86 34.7205C120.1 34.4705 120.16 34.1705 120.16 33.7005C120.16 33.2305 120.1 32.9405 119.86 32.6905C119.69 32.5105 119.43 32.3705 119.05 32.3705C118.67 32.3705 118.41 32.5205 118.24 32.6905C118 32.9405 117.94 33.2305 117.94 33.7005C117.94 34.1705 118 34.4705 118.24 34.7205C118.41 34.8905 118.66 35.0405 119.05 35.0405C119.44 35.0405 119.7 34.8905 119.86 34.7205ZM119.35 33.0705C119.49 33.2005 119.5 33.4405 119.5 33.7005C119.5 33.9605 119.49 34.2105 119.35 34.3405C119.27 34.4205 119.17 34.4605 119.04 34.4605C118.91 34.4605 118.81 34.4205 118.74 34.3405C118.6 34.2105 118.59 33.9705 118.59 33.7005C118.59 33.4305 118.61 33.2005 118.74 33.0705C118.82 32.9905 118.92 32.9505 119.04 32.9505C119.16 32.9505 119.27 32.9905 119.35 33.0705ZM121.77 35.0405C122.39 35.0405 122.88 34.7605 122.88 34.1905C122.88 33.7405 122.62 33.4705 122.1 33.4205L121.69 33.3805C121.49 33.3605 121.42 33.2805 121.42 33.1505C121.42 33.0205 121.53 32.9005 121.79 32.9005C122.02 32.9005 122.25 32.9405 122.4 33.0805L122.8 32.6705C122.55 32.4405 122.21 32.3605 121.8 32.3605C121.27 32.3605 120.79 32.6505 120.79 33.1905C120.79 33.6705 121.08 33.8805 121.54 33.9205L121.96 33.9605C122.17 33.9805 122.24 34.0705 122.24 34.2005C122.24 34.4005 122 34.4705 121.78 34.4705C121.58 34.4705 121.29 34.4405 121.08 34.2205L120.65 34.6505C120.99 34.9805 121.35 35.0305 121.76 35.0305M30.1099 21.1905C29.9599 20.6205 29.6599 20.0805 29.2399 19.6005C27.7999 17.9405 24.8399 16.8105 20.8999 16.4005C20.2799 16.3705 19.7199 16.3305 19.2099 16.2705C19.1099 16.2705 19.0199 16.2705 18.9299 16.2605C18.8499 16.2605 18.7799 16.2405 18.7099 16.2205C13.8799 15.6405 10.8499 13.9305 10.1799 11.4005C10.1399 11.2505 10.1099 11.1105 10.0899 10.9605C7.22992 13.1305 5.46992 15.4005 5.07992 17.4205C4.95992 18.0505 4.96992 18.6605 5.11992 19.2405C5.26992 19.8105 5.56992 20.3505 5.98992 20.8305C7.42992 22.4905 10.3899 23.6205 14.3299 24.0305C14.9499 24.0605 18.1899 24.4305 18.2199 24.4205C22.3199 24.9305 24.9399 26.2805 25.4499 28.1605C25.5399 28.5105 25.5699 28.8105 25.5199 29.2005C28.1499 27.1005 29.7699 24.9505 30.1399 23.0205C30.2599 22.3905 30.2499 21.7805 30.0999 21.2005L30.1099 21.1905ZM11.7999 13.8005C11.7999 13.8005 11.7799 13.7805 11.7699 13.7705C11.7199 13.7305 11.6599 13.6805 11.6099 13.6405C11.5999 13.6305 11.5899 13.6205 11.5699 13.6105C11.5199 13.5705 11.4699 13.5205 11.4299 13.4805C11.4199 13.4705 11.4099 13.4605 11.3899 13.4405C11.3399 13.3905 11.2999 13.3505 11.2499 13.3005C11.2499 13.3005 11.2499 13.2905 11.2399 13.2805C11.0999 13.1405 10.9799 12.9905 10.8699 12.8305C10.8499 12.8005 10.8299 12.7805 10.8099 12.7505C10.7899 12.7205 10.7599 12.6805 10.7399 12.6505C10.7199 12.6205 10.6999 12.5905 10.6799 12.5505C10.6599 12.5205 10.6399 12.4805 10.6199 12.4505C10.5999 12.4105 10.5799 12.3805 10.5599 12.3405C10.5399 12.3105 10.5199 12.2805 10.5099 12.2405C10.4899 12.2005 10.4699 12.1605 10.4499 12.1305C10.4299 12.1005 10.4199 12.0705 10.4099 12.0405C10.3899 12.0005 10.3699 11.9605 10.3599 11.9205C10.3499 11.8905 10.3399 11.8605 10.3199 11.8305C10.2999 11.7805 10.2799 11.7305 10.2699 11.6905C10.2699 11.6705 10.2499 11.6405 10.2399 11.6205C10.2199 11.5505 10.1899 11.4705 10.1699 11.4005C10.1299 11.2505 10.0999 11.1105 10.0799 10.9605C7.22992 13.1305 5.46992 15.4005 5.07992 17.4205C4.95992 18.0505 4.96992 18.6605 5.11992 19.2405C5.26992 19.8105 5.56992 20.3505 5.98992 20.8305C7.42992 22.4905 10.3899 23.6205 14.3299 24.0305C14.9399 24.0605 18.0499 24.4205 18.2099 24.4205C21.7499 24.8605 24.1899 25.9305 25.1099 27.4205C25.1399 27.4605 25.1599 27.5105 25.1899 27.5505C25.2999 27.7405 25.3799 27.9505 25.4399 28.1505C25.4599 28.2405 25.4799 28.3205 25.4999 28.4005C25.5299 28.5705 25.5399 28.7305 25.5399 28.9105C25.5399 29.0005 25.5399 29.0905 25.5199 29.1905C28.1499 27.0905 29.7699 24.9405 30.1399 23.0105C30.2599 22.3805 30.2499 21.7705 30.0999 21.1905C29.9499 20.6205 29.6499 20.0805 29.2299 19.6005C27.7899 17.9405 24.8299 16.8105 20.8899 16.4005C20.2699 16.3705 19.7099 16.3305 19.1999 16.2705C19.0999 16.2705 19.0099 16.2705 18.9199 16.2605C18.8399 16.2605 18.7699 16.2405 18.6999 16.2205C15.7499 15.8605 13.4699 15.0805 11.9899 13.9505C11.9899 13.9505 11.9899 13.9505 11.9799 13.9405C11.9199 13.8905 11.8599 13.8505 11.8099 13.8005H11.7999ZM11.7999 13.8005C11.7999 13.8005 11.7799 13.7805 11.7699 13.7705C11.7799 13.7705 11.7899 13.7905 11.7999 13.8005ZM10.8099 12.7505C10.8099 12.7505 10.8499 12.8005 10.8699 12.8305C10.8499 12.8005 10.8299 12.7805 10.8099 12.7505ZM11.2599 13.2905C11.2599 13.2905 11.2599 13.2805 11.2499 13.2705C11.2499 13.2705 11.2499 13.2805 11.2599 13.2905ZM11.5799 13.6005C11.5799 13.6005 11.5999 13.6205 11.6199 13.6305C11.6099 13.6205 11.5999 13.6105 11.5799 13.6005ZM10.6799 12.5505C10.6799 12.5505 10.7199 12.6105 10.7399 12.6505C10.7199 12.6205 10.6999 12.5905 10.6799 12.5505ZM10.1699 11.3905C10.1899 11.4605 10.2099 11.5405 10.2399 11.6105C10.2199 11.5405 10.1899 11.4605 10.1699 11.3905ZM10.2599 11.6905C10.2599 11.6905 10.2899 11.7905 10.3099 11.8305C10.2899 11.7805 10.2699 11.7305 10.2599 11.6905ZM10.5599 12.3505C10.5599 12.3505 10.5999 12.4205 10.6199 12.4605C10.5999 12.4205 10.5799 12.3905 10.5599 12.3505ZM10.3499 11.9205C10.3499 11.9205 10.3899 12.0005 10.3999 12.0405C10.3799 12.0005 10.3599 11.9605 10.3499 11.9205ZM10.4499 12.1405C10.4499 12.1405 10.4899 12.2205 10.5099 12.2505C10.4899 12.2105 10.4699 12.1705 10.4499 12.1405ZM11.9899 13.9505C11.9899 13.9505 11.9899 13.9505 11.9799 13.9405C11.9799 13.9405 11.9799 13.9405 11.9899 13.9505ZM11.4299 13.4705C11.4299 13.4705 11.4099 13.4505 11.3899 13.4305C11.3999 13.4405 11.4099 13.4505 11.4299 13.4705ZM11.4199 11.0605C11.9299 12.9805 14.5699 14.3805 18.6499 14.9105C22.6999 11.9205 24.6899 8.78047 24.0299 6.30047C23.9099 5.86047 23.7199 5.45047 23.4399 5.06047C18.9199 6.35047 14.6899 8.14047 11.2699 10.2005L11.3499 10.7505C11.3699 10.8505 11.3899 10.9605 11.4099 11.0605H11.4199ZM25.5499 28.9205C25.5499 28.7405 25.5499 28.5805 25.5099 28.4105C25.5399 28.5805 25.5499 28.7405 25.5499 28.9205ZM24.1999 28.5005C24.0099 27.7905 23.2199 27.2605 22.5899 26.9305C21.4999 26.3705 19.9599 25.9505 18.1299 25.7205C17.9999 25.7205 17.7199 25.6805 16.7699 25.5805C16.7099 25.5805 16.6499 25.5705 16.5899 25.5605C12.5699 28.5405 10.5999 31.6605 11.2599 34.1305C11.3799 34.5705 11.5699 34.9805 11.8499 35.3705C16.4699 34.0505 20.7999 32.1505 24.2599 30.0205C24.2899 29.7605 24.3099 29.5105 24.3199 29.2805C24.3199 29.0705 24.2699 28.7005 24.2099 28.5005H24.1999ZM25.1999 27.5605C25.1999 27.5605 25.1499 27.4705 25.1199 27.4305C25.1499 27.4705 25.1699 27.5205 25.1999 27.5605ZM10.3499 11.9205C10.3499 11.9205 10.3299 11.8605 10.3099 11.8305C10.3199 11.8605 10.3299 11.8905 10.3499 11.9205ZM11.2599 13.3005C11.2599 13.3005 11.3499 13.3905 11.3999 13.4405C11.3499 13.3905 11.3099 13.3505 11.2599 13.3005ZM10.3999 12.0505C10.3999 12.0505 10.4299 12.1105 10.4399 12.1405C10.4199 12.1105 10.4099 12.0805 10.3999 12.0505ZM11.5699 13.6105C11.5699 13.6105 11.4699 13.5205 11.4299 13.4805C11.4799 13.5305 11.5199 13.5705 11.5699 13.6105ZM10.2499 11.6905C10.2499 11.6905 10.2299 11.6405 10.2199 11.6205C10.2199 11.6405 10.2399 11.6705 10.2499 11.6905ZM10.7999 12.7605C10.7999 12.7605 10.7499 12.6905 10.7299 12.6605C10.7499 12.6905 10.7799 12.7305 10.7999 12.7605ZM11.2299 13.2905C11.0899 13.1505 10.9699 13.0005 10.8599 12.8405C10.9699 12.9905 11.0999 13.1405 11.2299 13.2905ZM11.9599 13.9505C11.8999 13.9005 11.8399 13.8605 11.7899 13.8105C11.8499 13.8605 11.8999 13.9005 11.9599 13.9505ZM25.1899 27.5705C25.2999 27.7605 25.3799 27.9705 25.4399 28.1705C25.4599 28.2605 25.4799 28.3405 25.4999 28.4205C25.4899 28.3405 25.4699 28.2505 25.4399 28.1705C25.3799 27.9605 25.2999 27.7605 25.1899 27.5705ZM10.5599 12.3505C10.5599 12.3505 10.5199 12.2905 10.5099 12.2505C10.5299 12.2805 10.5399 12.3105 10.5599 12.3505ZM11.7699 13.7805C11.7199 13.7405 11.6599 13.6905 11.6099 13.6505C11.6599 13.7005 11.7099 13.7405 11.7699 13.7805ZM10.6799 12.5605C10.6799 12.5605 10.6399 12.4905 10.6199 12.4605C10.6399 12.4905 10.6599 12.5305 10.6799 12.5605Z" fill="white"/>
</svg>
